<mxfile host="www.draw.io" modified="2019-10-15T19:31:22.177Z" agent="Mozilla/5.0 (Macintosh; Intel Mac OS X 10_14_6) AppleWebKit/537.36 (KHTML, like Gecko) Chrome/77.0.3865.120 Safari/537.36" etag="yKK2ZehwM9BdbVrgYXs3" version="12.1.1" type="github" pages="1">
  <diagram id="SwRvpnI5577nwjsqaNad" name="Page-1">
    <mxGraphModel dx="2632" dy="1182" grid="1" gridSize="10" guides="1" tooltips="1" connect="1" arrows="1" fold="1" page="1" pageScale="1" pageWidth="850" pageHeight="1100" math="0" shadow="0">
      <root>
        <mxCell id="0"/>
        <mxCell id="1" parent="0"/>
        <mxCell id="HayMaWDMKleJQ8QASXuM-27" style="edgeStyle=none;rounded=0;orthogonalLoop=1;jettySize=auto;html=1;exitX=0.5;exitY=1;exitDx=0;exitDy=0;entryX=0.5;entryY=0;entryDx=0;entryDy=0;" edge="1" parent="1" source="HayMaWDMKleJQ8QASXuM-2" target="HayMaWDMKleJQ8QASXuM-9">
          <mxGeometry relative="1" as="geometry"/>
        </mxCell>
        <mxCell id="HayMaWDMKleJQ8QASXuM-28" style="edgeStyle=none;rounded=0;orthogonalLoop=1;jettySize=auto;html=1;exitX=0.5;exitY=1;exitDx=0;exitDy=0;entryX=0.5;entryY=0;entryDx=0;entryDy=0;" edge="1" parent="1" source="HayMaWDMKleJQ8QASXuM-2" target="HayMaWDMKleJQ8QASXuM-3">
          <mxGeometry relative="1" as="geometry"/>
        </mxCell>
        <mxCell id="HayMaWDMKleJQ8QASXuM-29" style="edgeStyle=none;rounded=0;orthogonalLoop=1;jettySize=auto;html=1;exitX=0.5;exitY=1;exitDx=0;exitDy=0;entryX=0.375;entryY=0.125;entryDx=0;entryDy=0;entryPerimeter=0;" edge="1" parent="1" source="HayMaWDMKleJQ8QASXuM-2" target="HayMaWDMKleJQ8QASXuM-6">
          <mxGeometry relative="1" as="geometry"/>
        </mxCell>
        <mxCell id="HayMaWDMKleJQ8QASXuM-2" value="" style="ellipse;whiteSpace=wrap;html=1;aspect=fixed;" vertex="1" parent="1">
          <mxGeometry x="480" y="90" width="80" height="80" as="geometry"/>
        </mxCell>
        <mxCell id="HayMaWDMKleJQ8QASXuM-127" style="edgeStyle=none;rounded=0;orthogonalLoop=1;jettySize=auto;html=1;exitX=0.5;exitY=1;exitDx=0;exitDy=0;entryX=0.468;entryY=0.121;entryDx=0;entryDy=0;entryPerimeter=0;fontSize=19;" edge="1" parent="1" source="HayMaWDMKleJQ8QASXuM-3" target="HayMaWDMKleJQ8QASXuM-119">
          <mxGeometry relative="1" as="geometry"/>
        </mxCell>
        <mxCell id="HayMaWDMKleJQ8QASXuM-3" value="" style="ellipse;whiteSpace=wrap;html=1;aspect=fixed;" vertex="1" parent="1">
          <mxGeometry x="650" y="320" width="80" height="80" as="geometry"/>
        </mxCell>
        <mxCell id="HayMaWDMKleJQ8QASXuM-125" style="edgeStyle=none;rounded=0;orthogonalLoop=1;jettySize=auto;html=1;exitX=0.5;exitY=1;exitDx=0;exitDy=0;fontSize=19;entryX=0.4;entryY=0.1;entryDx=0;entryDy=0;entryPerimeter=0;" edge="1" parent="1" source="HayMaWDMKleJQ8QASXuM-6" target="HayMaWDMKleJQ8QASXuM-119">
          <mxGeometry relative="1" as="geometry">
            <mxPoint x="370" y="490" as="targetPoint"/>
          </mxGeometry>
        </mxCell>
        <mxCell id="HayMaWDMKleJQ8QASXuM-6" value="" style="ellipse;whiteSpace=wrap;html=1;aspect=fixed;" vertex="1" parent="1">
          <mxGeometry x="540" y="320" width="80" height="80" as="geometry"/>
        </mxCell>
        <mxCell id="HayMaWDMKleJQ8QASXuM-121" style="edgeStyle=none;rounded=0;orthogonalLoop=1;jettySize=auto;html=1;exitX=0.5;exitY=1;exitDx=0;exitDy=0;entryX=0.4;entryY=0.1;entryDx=0;entryDy=0;entryPerimeter=0;fontSize=19;" edge="1" parent="1" source="HayMaWDMKleJQ8QASXuM-7" target="HayMaWDMKleJQ8QASXuM-119">
          <mxGeometry relative="1" as="geometry"/>
        </mxCell>
        <mxCell id="HayMaWDMKleJQ8QASXuM-7" value="" style="ellipse;whiteSpace=wrap;html=1;aspect=fixed;" vertex="1" parent="1">
          <mxGeometry x="70" y="320" width="80" height="80" as="geometry"/>
        </mxCell>
        <mxCell id="HayMaWDMKleJQ8QASXuM-124" style="edgeStyle=none;rounded=0;orthogonalLoop=1;jettySize=auto;html=1;exitX=0.5;exitY=1;exitDx=0;exitDy=0;fontSize=19;" edge="1" parent="1" source="HayMaWDMKleJQ8QASXuM-8">
          <mxGeometry relative="1" as="geometry">
            <mxPoint x="380" y="490" as="targetPoint"/>
          </mxGeometry>
        </mxCell>
        <mxCell id="HayMaWDMKleJQ8QASXuM-8" value="" style="ellipse;whiteSpace=wrap;html=1;aspect=fixed;" vertex="1" parent="1">
          <mxGeometry x="430" y="320" width="80" height="80" as="geometry"/>
        </mxCell>
        <mxCell id="HayMaWDMKleJQ8QASXuM-123" style="edgeStyle=none;rounded=0;orthogonalLoop=1;jettySize=auto;html=1;exitX=0.5;exitY=1;exitDx=0;exitDy=0;fontSize=19;" edge="1" parent="1" source="HayMaWDMKleJQ8QASXuM-9">
          <mxGeometry relative="1" as="geometry">
            <mxPoint x="380" y="490" as="targetPoint"/>
          </mxGeometry>
        </mxCell>
        <mxCell id="HayMaWDMKleJQ8QASXuM-9" value="" style="ellipse;whiteSpace=wrap;html=1;aspect=fixed;" vertex="1" parent="1">
          <mxGeometry x="310" y="320" width="80" height="80" as="geometry"/>
        </mxCell>
        <mxCell id="HayMaWDMKleJQ8QASXuM-122" style="edgeStyle=none;rounded=0;orthogonalLoop=1;jettySize=auto;html=1;exitX=0.5;exitY=1;exitDx=0;exitDy=0;entryX=0.4;entryY=0.1;entryDx=0;entryDy=0;entryPerimeter=0;fontSize=19;" edge="1" parent="1" source="HayMaWDMKleJQ8QASXuM-10" target="HayMaWDMKleJQ8QASXuM-119">
          <mxGeometry relative="1" as="geometry"/>
        </mxCell>
        <mxCell id="HayMaWDMKleJQ8QASXuM-10" value="" style="ellipse;whiteSpace=wrap;html=1;aspect=fixed;" vertex="1" parent="1">
          <mxGeometry x="190" y="310" width="80" height="80" as="geometry"/>
        </mxCell>
        <mxCell id="HayMaWDMKleJQ8QASXuM-23" style="rounded=0;orthogonalLoop=1;jettySize=auto;html=1;exitX=0;exitY=1;exitDx=0;exitDy=0;entryX=0.5;entryY=0;entryDx=0;entryDy=0;" edge="1" parent="1" source="HayMaWDMKleJQ8QASXuM-11" target="HayMaWDMKleJQ8QASXuM-7">
          <mxGeometry relative="1" as="geometry"/>
        </mxCell>
        <mxCell id="HayMaWDMKleJQ8QASXuM-24" style="edgeStyle=none;rounded=0;orthogonalLoop=1;jettySize=auto;html=1;exitX=0.5;exitY=1;exitDx=0;exitDy=0;entryX=0.5;entryY=0;entryDx=0;entryDy=0;" edge="1" parent="1" source="HayMaWDMKleJQ8QASXuM-11" target="HayMaWDMKleJQ8QASXuM-9">
          <mxGeometry relative="1" as="geometry"/>
        </mxCell>
        <mxCell id="HayMaWDMKleJQ8QASXuM-11" value="" style="ellipse;whiteSpace=wrap;html=1;aspect=fixed;" vertex="1" parent="1">
          <mxGeometry x="230" y="90" width="80" height="80" as="geometry"/>
        </mxCell>
        <mxCell id="HayMaWDMKleJQ8QASXuM-25" style="edgeStyle=none;rounded=0;orthogonalLoop=1;jettySize=auto;html=1;exitX=0.5;exitY=1;exitDx=0;exitDy=0;entryX=0.5;entryY=0;entryDx=0;entryDy=0;" edge="1" parent="1" source="HayMaWDMKleJQ8QASXuM-12" target="HayMaWDMKleJQ8QASXuM-10">
          <mxGeometry relative="1" as="geometry"/>
        </mxCell>
        <mxCell id="HayMaWDMKleJQ8QASXuM-26" style="edgeStyle=none;rounded=0;orthogonalLoop=1;jettySize=auto;html=1;exitX=0.5;exitY=1;exitDx=0;exitDy=0;entryX=0.5;entryY=0;entryDx=0;entryDy=0;" edge="1" parent="1" source="HayMaWDMKleJQ8QASXuM-12" target="HayMaWDMKleJQ8QASXuM-8">
          <mxGeometry relative="1" as="geometry"/>
        </mxCell>
        <mxCell id="HayMaWDMKleJQ8QASXuM-12" value="" style="ellipse;whiteSpace=wrap;html=1;aspect=fixed;" vertex="1" parent="1">
          <mxGeometry x="355" y="90" width="80" height="80" as="geometry"/>
        </mxCell>
        <mxCell id="HayMaWDMKleJQ8QASXuM-13" value="" style="ellipse;whiteSpace=wrap;html=1;aspect=fixed;" vertex="1" parent="1">
          <mxGeometry x="660" y="760" width="80" height="80" as="geometry"/>
        </mxCell>
        <mxCell id="HayMaWDMKleJQ8QASXuM-14" value="" style="ellipse;whiteSpace=wrap;html=1;aspect=fixed;" vertex="1" parent="1">
          <mxGeometry x="470" y="760" width="80" height="80" as="geometry"/>
        </mxCell>
        <mxCell id="HayMaWDMKleJQ8QASXuM-15" value="" style="ellipse;whiteSpace=wrap;html=1;aspect=fixed;" vertex="1" parent="1">
          <mxGeometry x="260" y="770" width="80" height="80" as="geometry"/>
        </mxCell>
        <mxCell id="HayMaWDMKleJQ8QASXuM-16" value="" style="ellipse;whiteSpace=wrap;html=1;aspect=fixed;" vertex="1" parent="1">
          <mxGeometry x="70" y="760" width="80" height="80" as="geometry"/>
        </mxCell>
        <mxCell id="HayMaWDMKleJQ8QASXuM-44" style="edgeStyle=none;rounded=0;orthogonalLoop=1;jettySize=auto;html=1;exitX=0.5;exitY=1;exitDx=0;exitDy=0;entryX=0.5;entryY=0;entryDx=0;entryDy=0;" edge="1" parent="1" source="HayMaWDMKleJQ8QASXuM-17" target="HayMaWDMKleJQ8QASXuM-15">
          <mxGeometry relative="1" as="geometry"/>
        </mxCell>
        <mxCell id="HayMaWDMKleJQ8QASXuM-46" style="edgeStyle=none;rounded=0;orthogonalLoop=1;jettySize=auto;html=1;exitX=0.5;exitY=1;exitDx=0;exitDy=0;entryX=0;entryY=0;entryDx=0;entryDy=0;" edge="1" parent="1" source="HayMaWDMKleJQ8QASXuM-17" target="HayMaWDMKleJQ8QASXuM-13">
          <mxGeometry relative="1" as="geometry"/>
        </mxCell>
        <mxCell id="HayMaWDMKleJQ8QASXuM-17" value="" style="ellipse;whiteSpace=wrap;html=1;aspect=fixed;" vertex="1" parent="1">
          <mxGeometry x="395" y="600" width="80" height="80" as="geometry"/>
        </mxCell>
        <mxCell id="HayMaWDMKleJQ8QASXuM-39" style="edgeStyle=none;rounded=0;orthogonalLoop=1;jettySize=auto;html=1;exitX=0.5;exitY=1;exitDx=0;exitDy=0;entryX=0.5;entryY=0;entryDx=0;entryDy=0;" edge="1" parent="1" source="HayMaWDMKleJQ8QASXuM-18" target="HayMaWDMKleJQ8QASXuM-16">
          <mxGeometry relative="1" as="geometry"/>
        </mxCell>
        <mxCell id="HayMaWDMKleJQ8QASXuM-40" style="edgeStyle=none;rounded=0;orthogonalLoop=1;jettySize=auto;html=1;exitX=0.5;exitY=1;exitDx=0;exitDy=0;" edge="1" parent="1" source="HayMaWDMKleJQ8QASXuM-18" target="HayMaWDMKleJQ8QASXuM-15">
          <mxGeometry relative="1" as="geometry"/>
        </mxCell>
        <mxCell id="HayMaWDMKleJQ8QASXuM-43" style="edgeStyle=none;rounded=0;orthogonalLoop=1;jettySize=auto;html=1;exitX=0.5;exitY=1;exitDx=0;exitDy=0;entryX=0.5;entryY=0;entryDx=0;entryDy=0;" edge="1" parent="1" source="HayMaWDMKleJQ8QASXuM-18" target="HayMaWDMKleJQ8QASXuM-14">
          <mxGeometry relative="1" as="geometry"/>
        </mxCell>
        <mxCell id="HayMaWDMKleJQ8QASXuM-18" value="" style="ellipse;whiteSpace=wrap;html=1;aspect=fixed;" vertex="1" parent="1">
          <mxGeometry x="130" y="600" width="80" height="80" as="geometry"/>
        </mxCell>
        <mxCell id="HayMaWDMKleJQ8QASXuM-45" style="edgeStyle=none;rounded=0;orthogonalLoop=1;jettySize=auto;html=1;exitX=0.5;exitY=1;exitDx=0;exitDy=0;" edge="1" parent="1" source="HayMaWDMKleJQ8QASXuM-19" target="HayMaWDMKleJQ8QASXuM-14">
          <mxGeometry relative="1" as="geometry"/>
        </mxCell>
        <mxCell id="HayMaWDMKleJQ8QASXuM-19" value="" style="ellipse;whiteSpace=wrap;html=1;aspect=fixed;" vertex="1" parent="1">
          <mxGeometry x="580" y="600" width="80" height="80" as="geometry"/>
        </mxCell>
        <mxCell id="HayMaWDMKleJQ8QASXuM-83" style="edgeStyle=none;rounded=0;orthogonalLoop=1;jettySize=auto;html=1;exitX=0.5;exitY=1;exitDx=0;exitDy=0;entryX=0.5;entryY=0;entryDx=0;entryDy=0;" edge="1" source="HayMaWDMKleJQ8QASXuM-86" target="HayMaWDMKleJQ8QASXuM-97" parent="1">
          <mxGeometry relative="1" as="geometry"/>
        </mxCell>
        <mxCell id="HayMaWDMKleJQ8QASXuM-84" style="edgeStyle=none;rounded=0;orthogonalLoop=1;jettySize=auto;html=1;exitX=0.5;exitY=1;exitDx=0;exitDy=0;entryX=0.5;entryY=0;entryDx=0;entryDy=0;" edge="1" source="HayMaWDMKleJQ8QASXuM-86" target="HayMaWDMKleJQ8QASXuM-88" parent="1">
          <mxGeometry relative="1" as="geometry"/>
        </mxCell>
        <mxCell id="HayMaWDMKleJQ8QASXuM-85" style="edgeStyle=none;rounded=0;orthogonalLoop=1;jettySize=auto;html=1;exitX=0.5;exitY=1;exitDx=0;exitDy=0;entryX=0.375;entryY=0.125;entryDx=0;entryDy=0;entryPerimeter=0;" edge="1" source="HayMaWDMKleJQ8QASXuM-86" target="HayMaWDMKleJQ8QASXuM-90" parent="1">
          <mxGeometry relative="1" as="geometry"/>
        </mxCell>
        <mxCell id="HayMaWDMKleJQ8QASXuM-86" value="" style="ellipse;whiteSpace=wrap;html=1;aspect=fixed;" vertex="1" parent="1">
          <mxGeometry x="-350" y="130" width="80" height="80" as="geometry"/>
        </mxCell>
        <mxCell id="HayMaWDMKleJQ8QASXuM-87" style="edgeStyle=none;rounded=0;orthogonalLoop=1;jettySize=auto;html=1;exitX=0.5;exitY=1;exitDx=0;exitDy=0;entryX=0.5;entryY=0;entryDx=0;entryDy=0;" edge="1" source="HayMaWDMKleJQ8QASXuM-88" target="HayMaWDMKleJQ8QASXuM-112" parent="1">
          <mxGeometry relative="1" as="geometry"/>
        </mxCell>
        <mxCell id="HayMaWDMKleJQ8QASXuM-88" value="" style="ellipse;whiteSpace=wrap;html=1;aspect=fixed;" vertex="1" parent="1">
          <mxGeometry x="-180" y="360" width="80" height="80" as="geometry"/>
        </mxCell>
        <mxCell id="HayMaWDMKleJQ8QASXuM-89" style="edgeStyle=none;rounded=0;orthogonalLoop=1;jettySize=auto;html=1;exitX=0.5;exitY=1;exitDx=0;exitDy=0;" edge="1" source="HayMaWDMKleJQ8QASXuM-90" parent="1">
          <mxGeometry relative="1" as="geometry">
            <mxPoint x="-410" y="540" as="targetPoint"/>
          </mxGeometry>
        </mxCell>
        <mxCell id="HayMaWDMKleJQ8QASXuM-90" value="" style="ellipse;whiteSpace=wrap;html=1;aspect=fixed;" vertex="1" parent="1">
          <mxGeometry x="-290" y="360" width="80" height="80" as="geometry"/>
        </mxCell>
        <mxCell id="HayMaWDMKleJQ8QASXuM-91" style="edgeStyle=none;rounded=0;orthogonalLoop=1;jettySize=auto;html=1;exitX=0.5;exitY=1;exitDx=0;exitDy=0;" edge="1" source="HayMaWDMKleJQ8QASXuM-92" target="HayMaWDMKleJQ8QASXuM-116" parent="1">
          <mxGeometry relative="1" as="geometry"/>
        </mxCell>
        <mxCell id="HayMaWDMKleJQ8QASXuM-92" value="" style="ellipse;whiteSpace=wrap;html=1;aspect=fixed;" vertex="1" parent="1">
          <mxGeometry x="-760" y="360" width="80" height="80" as="geometry"/>
        </mxCell>
        <mxCell id="HayMaWDMKleJQ8QASXuM-93" style="edgeStyle=none;rounded=0;orthogonalLoop=1;jettySize=auto;html=1;exitX=0.5;exitY=1;exitDx=0;exitDy=0;entryX=0.5;entryY=0;entryDx=0;entryDy=0;" edge="1" source="HayMaWDMKleJQ8QASXuM-94" target="HayMaWDMKleJQ8QASXuM-118" parent="1">
          <mxGeometry relative="1" as="geometry"/>
        </mxCell>
        <mxCell id="HayMaWDMKleJQ8QASXuM-94" value="" style="ellipse;whiteSpace=wrap;html=1;aspect=fixed;" vertex="1" parent="1">
          <mxGeometry x="-400" y="360" width="80" height="80" as="geometry"/>
        </mxCell>
        <mxCell id="HayMaWDMKleJQ8QASXuM-95" style="edgeStyle=none;rounded=0;orthogonalLoop=1;jettySize=auto;html=1;exitX=0.5;exitY=1;exitDx=0;exitDy=0;entryX=1;entryY=0;entryDx=0;entryDy=0;" edge="1" source="HayMaWDMKleJQ8QASXuM-97" target="HayMaWDMKleJQ8QASXuM-116" parent="1">
          <mxGeometry relative="1" as="geometry"/>
        </mxCell>
        <mxCell id="HayMaWDMKleJQ8QASXuM-96" style="edgeStyle=none;rounded=0;orthogonalLoop=1;jettySize=auto;html=1;exitX=0.5;exitY=1;exitDx=0;exitDy=0;entryX=0.5;entryY=0;entryDx=0;entryDy=0;" edge="1" source="HayMaWDMKleJQ8QASXuM-97" target="HayMaWDMKleJQ8QASXuM-118" parent="1">
          <mxGeometry relative="1" as="geometry"/>
        </mxCell>
        <mxCell id="HayMaWDMKleJQ8QASXuM-97" value="" style="ellipse;whiteSpace=wrap;html=1;aspect=fixed;" vertex="1" parent="1">
          <mxGeometry x="-520" y="360" width="80" height="80" as="geometry"/>
        </mxCell>
        <mxCell id="HayMaWDMKleJQ8QASXuM-98" style="edgeStyle=none;rounded=0;orthogonalLoop=1;jettySize=auto;html=1;exitX=0.5;exitY=1;exitDx=0;exitDy=0;entryX=0.5;entryY=0;entryDx=0;entryDy=0;" edge="1" source="HayMaWDMKleJQ8QASXuM-99" target="HayMaWDMKleJQ8QASXuM-112" parent="1">
          <mxGeometry relative="1" as="geometry"/>
        </mxCell>
        <mxCell id="HayMaWDMKleJQ8QASXuM-99" value="" style="ellipse;whiteSpace=wrap;html=1;aspect=fixed;" vertex="1" parent="1">
          <mxGeometry x="-640" y="350" width="80" height="80" as="geometry"/>
        </mxCell>
        <mxCell id="HayMaWDMKleJQ8QASXuM-100" style="rounded=0;orthogonalLoop=1;jettySize=auto;html=1;exitX=0;exitY=1;exitDx=0;exitDy=0;entryX=0.5;entryY=0;entryDx=0;entryDy=0;" edge="1" source="HayMaWDMKleJQ8QASXuM-102" target="HayMaWDMKleJQ8QASXuM-92" parent="1">
          <mxGeometry relative="1" as="geometry"/>
        </mxCell>
        <mxCell id="HayMaWDMKleJQ8QASXuM-101" style="edgeStyle=none;rounded=0;orthogonalLoop=1;jettySize=auto;html=1;exitX=0.5;exitY=1;exitDx=0;exitDy=0;entryX=0.5;entryY=0;entryDx=0;entryDy=0;" edge="1" source="HayMaWDMKleJQ8QASXuM-102" target="HayMaWDMKleJQ8QASXuM-97" parent="1">
          <mxGeometry relative="1" as="geometry"/>
        </mxCell>
        <mxCell id="HayMaWDMKleJQ8QASXuM-102" value="" style="ellipse;whiteSpace=wrap;html=1;aspect=fixed;" vertex="1" parent="1">
          <mxGeometry x="-600" y="130" width="80" height="80" as="geometry"/>
        </mxCell>
        <mxCell id="HayMaWDMKleJQ8QASXuM-103" style="edgeStyle=none;rounded=0;orthogonalLoop=1;jettySize=auto;html=1;exitX=0.5;exitY=1;exitDx=0;exitDy=0;entryX=0.5;entryY=0;entryDx=0;entryDy=0;" edge="1" source="HayMaWDMKleJQ8QASXuM-105" target="HayMaWDMKleJQ8QASXuM-99" parent="1">
          <mxGeometry relative="1" as="geometry"/>
        </mxCell>
        <mxCell id="HayMaWDMKleJQ8QASXuM-104" style="edgeStyle=none;rounded=0;orthogonalLoop=1;jettySize=auto;html=1;exitX=0.5;exitY=1;exitDx=0;exitDy=0;entryX=0.5;entryY=0;entryDx=0;entryDy=0;" edge="1" source="HayMaWDMKleJQ8QASXuM-105" target="HayMaWDMKleJQ8QASXuM-94" parent="1">
          <mxGeometry relative="1" as="geometry"/>
        </mxCell>
        <mxCell id="HayMaWDMKleJQ8QASXuM-105" value="" style="ellipse;whiteSpace=wrap;html=1;aspect=fixed;" vertex="1" parent="1">
          <mxGeometry x="-475" y="130" width="80" height="80" as="geometry"/>
        </mxCell>
        <mxCell id="HayMaWDMKleJQ8QASXuM-106" value="" style="ellipse;whiteSpace=wrap;html=1;aspect=fixed;" vertex="1" parent="1">
          <mxGeometry x="-170" y="700" width="80" height="80" as="geometry"/>
        </mxCell>
        <mxCell id="HayMaWDMKleJQ8QASXuM-107" value="" style="ellipse;whiteSpace=wrap;html=1;aspect=fixed;" vertex="1" parent="1">
          <mxGeometry x="-360" y="700" width="80" height="80" as="geometry"/>
        </mxCell>
        <mxCell id="HayMaWDMKleJQ8QASXuM-108" value="" style="ellipse;whiteSpace=wrap;html=1;aspect=fixed;" vertex="1" parent="1">
          <mxGeometry x="-570" y="710" width="80" height="80" as="geometry"/>
        </mxCell>
        <mxCell id="HayMaWDMKleJQ8QASXuM-109" value="" style="ellipse;whiteSpace=wrap;html=1;aspect=fixed;" vertex="1" parent="1">
          <mxGeometry x="-760" y="700" width="80" height="80" as="geometry"/>
        </mxCell>
        <mxCell id="HayMaWDMKleJQ8QASXuM-110" style="edgeStyle=none;rounded=0;orthogonalLoop=1;jettySize=auto;html=1;exitX=0.5;exitY=1;exitDx=0;exitDy=0;entryX=0.5;entryY=0;entryDx=0;entryDy=0;" edge="1" source="HayMaWDMKleJQ8QASXuM-112" target="HayMaWDMKleJQ8QASXuM-108" parent="1">
          <mxGeometry relative="1" as="geometry"/>
        </mxCell>
        <mxCell id="HayMaWDMKleJQ8QASXuM-111" style="edgeStyle=none;rounded=0;orthogonalLoop=1;jettySize=auto;html=1;exitX=0.5;exitY=1;exitDx=0;exitDy=0;entryX=0;entryY=0;entryDx=0;entryDy=0;" edge="1" source="HayMaWDMKleJQ8QASXuM-112" target="HayMaWDMKleJQ8QASXuM-106" parent="1">
          <mxGeometry relative="1" as="geometry"/>
        </mxCell>
        <mxCell id="HayMaWDMKleJQ8QASXuM-112" value="" style="ellipse;whiteSpace=wrap;html=1;aspect=fixed;" vertex="1" parent="1">
          <mxGeometry x="-435" y="540" width="80" height="80" as="geometry"/>
        </mxCell>
        <mxCell id="HayMaWDMKleJQ8QASXuM-113" style="edgeStyle=none;rounded=0;orthogonalLoop=1;jettySize=auto;html=1;exitX=0.5;exitY=1;exitDx=0;exitDy=0;entryX=0.5;entryY=0;entryDx=0;entryDy=0;" edge="1" source="HayMaWDMKleJQ8QASXuM-116" target="HayMaWDMKleJQ8QASXuM-109" parent="1">
          <mxGeometry relative="1" as="geometry"/>
        </mxCell>
        <mxCell id="HayMaWDMKleJQ8QASXuM-114" style="edgeStyle=none;rounded=0;orthogonalLoop=1;jettySize=auto;html=1;exitX=0.5;exitY=1;exitDx=0;exitDy=0;" edge="1" source="HayMaWDMKleJQ8QASXuM-116" target="HayMaWDMKleJQ8QASXuM-108" parent="1">
          <mxGeometry relative="1" as="geometry"/>
        </mxCell>
        <mxCell id="HayMaWDMKleJQ8QASXuM-115" style="edgeStyle=none;rounded=0;orthogonalLoop=1;jettySize=auto;html=1;exitX=0.5;exitY=1;exitDx=0;exitDy=0;entryX=0.5;entryY=0;entryDx=0;entryDy=0;" edge="1" source="HayMaWDMKleJQ8QASXuM-116" target="HayMaWDMKleJQ8QASXuM-107" parent="1">
          <mxGeometry relative="1" as="geometry"/>
        </mxCell>
        <mxCell id="HayMaWDMKleJQ8QASXuM-116" value="" style="ellipse;whiteSpace=wrap;html=1;aspect=fixed;" vertex="1" parent="1">
          <mxGeometry x="-700" y="540" width="80" height="80" as="geometry"/>
        </mxCell>
        <mxCell id="HayMaWDMKleJQ8QASXuM-117" style="edgeStyle=none;rounded=0;orthogonalLoop=1;jettySize=auto;html=1;exitX=0.5;exitY=1;exitDx=0;exitDy=0;" edge="1" source="HayMaWDMKleJQ8QASXuM-118" target="HayMaWDMKleJQ8QASXuM-107" parent="1">
          <mxGeometry relative="1" as="geometry"/>
        </mxCell>
        <mxCell id="HayMaWDMKleJQ8QASXuM-118" value="" style="ellipse;whiteSpace=wrap;html=1;aspect=fixed;" vertex="1" parent="1">
          <mxGeometry x="-250" y="540" width="80" height="80" as="geometry"/>
        </mxCell>
        <mxCell id="HayMaWDMKleJQ8QASXuM-128" style="edgeStyle=none;rounded=0;orthogonalLoop=1;jettySize=auto;html=1;exitX=0.55;exitY=0.95;exitDx=0;exitDy=0;exitPerimeter=0;entryX=0.5;entryY=0;entryDx=0;entryDy=0;fontSize=19;" edge="1" parent="1" source="HayMaWDMKleJQ8QASXuM-119" target="HayMaWDMKleJQ8QASXuM-18">
          <mxGeometry relative="1" as="geometry"/>
        </mxCell>
        <mxCell id="HayMaWDMKleJQ8QASXuM-129" style="edgeStyle=none;rounded=0;orthogonalLoop=1;jettySize=auto;html=1;exitX=0.55;exitY=0.95;exitDx=0;exitDy=0;exitPerimeter=0;entryX=0.5;entryY=0;entryDx=0;entryDy=0;fontSize=19;" edge="1" parent="1" source="HayMaWDMKleJQ8QASXuM-119" target="HayMaWDMKleJQ8QASXuM-17">
          <mxGeometry relative="1" as="geometry"/>
        </mxCell>
        <mxCell id="HayMaWDMKleJQ8QASXuM-130" style="edgeStyle=none;rounded=0;orthogonalLoop=1;jettySize=auto;html=1;exitX=0.55;exitY=0.95;exitDx=0;exitDy=0;exitPerimeter=0;entryX=0.5;entryY=0;entryDx=0;entryDy=0;fontSize=19;" edge="1" parent="1" source="HayMaWDMKleJQ8QASXuM-119" target="HayMaWDMKleJQ8QASXuM-19">
          <mxGeometry relative="1" as="geometry"/>
        </mxCell>
        <mxCell id="HayMaWDMKleJQ8QASXuM-119" value="&amp;nbsp;Network" style="ellipse;shape=cloud;whiteSpace=wrap;html=1;fontSize=19;" vertex="1" parent="1">
          <mxGeometry x="280" y="480" width="230" height="80" as="geometry"/>
        </mxCell>
        <mxCell id="HayMaWDMKleJQ8QASXuM-131" value="" style="shape=curlyBracket;whiteSpace=wrap;html=1;rounded=1;fontSize=19;" vertex="1" parent="1">
          <mxGeometry x="-665" y="110" width="20" height="120" as="geometry"/>
        </mxCell>
        <mxCell id="HayMaWDMKleJQ8QASXuM-134" value="Public API" style="text;html=1;resizable=0;points=[];autosize=1;align=left;verticalAlign=top;spacingTop=-4;fontSize=19;" vertex="1" parent="1">
          <mxGeometry x="-765" y="160" width="100" height="20" as="geometry"/>
        </mxCell>
        <mxCell id="HayMaWDMKleJQ8QASXuM-138" value="" style="shape=curlyBracket;whiteSpace=wrap;html=1;rounded=1;fontSize=19;" vertex="1" parent="1">
          <mxGeometry x="190" y="70" width="20" height="120" as="geometry"/>
        </mxCell>
        <mxCell id="HayMaWDMKleJQ8QASXuM-139" value="Public API" style="text;html=1;resizable=0;points=[];autosize=1;align=left;verticalAlign=top;spacingTop=-4;fontSize=19;" vertex="1" parent="1">
          <mxGeometry x="90" y="120" width="100" height="20" as="geometry"/>
        </mxCell>
        <mxCell id="HayMaWDMKleJQ8QASXuM-141" value="" style="shape=curlyBracket;whiteSpace=wrap;html=1;rounded=1;fontSize=19;rotation=-180;" vertex="1" parent="1">
          <mxGeometry x="740" y="40" width="20" height="450" as="geometry"/>
        </mxCell>
        <mxCell id="HayMaWDMKleJQ8QASXuM-142" value="" style="shape=curlyBracket;whiteSpace=wrap;html=1;rounded=1;fontSize=19;rotation=-180;" vertex="1" parent="1">
          <mxGeometry x="740" y="550" width="20" height="300" as="geometry"/>
        </mxCell>
        <mxCell id="HayMaWDMKleJQ8QASXuM-146" value="&lt;font style=&quot;font-size: 20px&quot;&gt;Client Side&lt;/font&gt;" style="text;html=1;resizable=0;points=[];autosize=1;align=left;verticalAlign=top;spacingTop=-4;fontSize=19;" vertex="1" parent="1">
          <mxGeometry x="780" y="245" width="110" height="20" as="geometry"/>
        </mxCell>
        <mxCell id="HayMaWDMKleJQ8QASXuM-147" value="&lt;font style=&quot;font-size: 20px&quot;&gt;Server Side&lt;/font&gt;" style="text;html=1;resizable=0;points=[];autosize=1;align=left;verticalAlign=top;spacingTop=-4;fontSize=19;" vertex="1" parent="1">
          <mxGeometry x="770" y="680" width="120" height="20" as="geometry"/>
        </mxCell>
      </root>
    </mxGraphModel>
  </diagram>
</mxfile>
